<?xml version="1.0" encoding="UTF-8" standalone="no"?>
<!-- Creator: CorelDRAW X5 -->

<svg
   xmlns:dc="http://purl.org/dc/elements/1.1/"
   xmlns:cc="http://creativecommons.org/ns#"
   xmlns:rdf="http://www.w3.org/1999/02/22-rdf-syntax-ns#"
   xmlns:svg="http://www.w3.org/2000/svg"
   xmlns="http://www.w3.org/2000/svg"
   xmlns:xlink="http://www.w3.org/1999/xlink"
   xmlns:sodipodi="http://sodipodi.sourceforge.net/DTD/sodipodi-0.dtd"
   xmlns:inkscape="http://www.inkscape.org/namespaces/inkscape"
   xml:space="preserve"
   width="297mm"
   height="210mm"
   style="shape-rendering:geometricPrecision; text-rendering:geometricPrecision; image-rendering:optimizeQuality; fill-rule:evenodd; clip-rule:evenodd"
   viewBox="0 0 297 210"
   id="svg3047"
   version="1.1"
   inkscape:version="0.48.0 r9654"
   sodipodi:docname="bus.svg"><metadata
   id="metadata3107"><rdf:RDF><cc:Work
       rdf:about=""><dc:format>image/svg+xml</dc:format><dc:type
         rdf:resource="http://purl.org/dc/dcmitype/StillImage" /></cc:Work></rdf:RDF></metadata><sodipodi:namedview
   pagecolor="#ffffff"
   bordercolor="#666666"
   borderopacity="1"
   objecttolerance="10"
   gridtolerance="10"
   guidetolerance="10"
   inkscape:pageopacity="0"
   inkscape:pageshadow="2"
   inkscape:window-width="1920"
   inkscape:window-height="1030"
   id="namedview3105"
   showgrid="false"
   inkscape:zoom="1.0899154"
   inkscape:cx="526.18109"
   inkscape:cy="372.04724"
   inkscape:window-x="-8"
   inkscape:window-y="-8"
   inkscape:window-maximized="1"
   inkscape:current-layer="svg3047"
   inkscape:object-paths="true"
   inkscape:snap-intersection-paths="true"
   inkscape:object-nodes="true"
   inkscape:snap-smooth-nodes="true"
   inkscape:snap-midpoints="true"
   inkscape:snap-object-midpoints="true"
   inkscape:snap-center="true"
   inkscape:snap-global="false" />
 <defs
   id="defs3049"><linearGradient
   id="linearGradient3094"><stop
     style="stop-color:#ff6600;stop-opacity:1;"
     offset="0"
     id="stop3096" /><stop
     style="stop-color:#b34800;stop-opacity:1;"
     offset="1"
     id="stop3098" /></linearGradient><linearGradient
   id="linearGradient3078"><stop
     style="stop-color:#ffffff;stop-opacity:1;"
     offset="0"
     id="stop3080" /><stop
     style="stop-color:#9d9d9d;stop-opacity:1;"
     offset="1"
     id="stop3082" /></linearGradient><linearGradient
   id="linearGradient3988"><stop
     style="stop-color:#000000;stop-opacity:1;"
     offset="0"
     id="stop3990" /><stop
     id="stop3996"
     offset="0.23469074"
     style="stop-color:#969696;stop-opacity:1;" /><stop
     style="stop-color:#000000;stop-opacity:1;"
     offset="1"
     id="stop3992" /></linearGradient><linearGradient
   id="linearGradient3966"><stop
     style="stop-color:#ffffff;stop-opacity:1;"
     offset="0"
     id="stop3968" /><stop
     style="stop-color:#7dadad;stop-opacity:1;"
     offset="1"
     id="stop3970" /></linearGradient><linearGradient
   id="linearGradient3956"><stop
     style="stop-color:#ff4343;stop-opacity:1;"
     offset="0"
     id="stop3958" /><stop
     style="stop-color:#d40000;stop-opacity:1;"
     offset="1"
     id="stop3960" /></linearGradient><linearGradient
   id="linearGradient3174"><stop
     style="stop-color:#000000;stop-opacity:1;"
     offset="0"
     id="stop3176" /><stop
     id="stop3184"
     offset="0.46031746"
     style="stop-color:#121212;stop-opacity:1;" /><stop
     id="stop3182"
     offset="0.92063493"
     style="stop-color:#3c3c3c;stop-opacity:1;" /><stop
     style="stop-color:#000000;stop-opacity:1;"
     offset="1"
     id="stop3178" /></linearGradient><linearGradient
   id="linearGradient3164"><stop
     style="stop-color:#393939;stop-opacity:1;"
     offset="0"
     id="stop3166" /><stop
     style="stop-color:#c3c3c3;stop-opacity:1;"
     offset="1"
     id="stop3168" /></linearGradient><linearGradient
   id="linearGradient3142"><stop
     style="stop-color:#ffe991;stop-opacity:1;"
     offset="0"
     id="stop3144" /><stop
     id="stop3158"
     offset="0.60931587"
     style="stop-color:#ffcc00;stop-opacity:1;" /><stop
     id="stop3156"
     offset="0.62494075"
     style="stop-color:#ffe991;stop-opacity:1;" /><stop
     id="stop3154"
     offset="0.64256597"
     style="stop-color:#8c7000;stop-opacity:1;" /><stop
     id="stop3152"
     offset="0.65373164"
     style="stop-color:#ffe991;stop-opacity:1;" /><stop
     id="stop3150"
     offset="0.6684463"
     style="stop-color:#8c7000;stop-opacity:1;" /><stop
     id="stop3148"
     offset="0.68278587"
     style="stop-color:#ffe991;stop-opacity:1;" /><stop
     style="stop-color:#6a5c22;stop-opacity:1;"
     offset="0.69713002"
     id="stop3160" /><stop
     id="stop3162"
     offset="0.71261138"
     style="stop-color:#e9c017;stop-opacity:1;" /><stop
     style="stop-color:#a58400;stop-opacity:1;"
     offset="1"
     id="stop3146" /></linearGradient>
  <style
   type="text/css"
   id="style3051">
   
    .str0 {stroke:black;stroke-width:0.2}
    .fil0 {fill:none}
    .fil1 {fill:none;fill-rule:nonzero}
   
  </style>
 
  
  
  
  
  
  
  
  
  
  
  
  
  
  
  
  
  
  
  
  
  
  
  
  
  
  
 <linearGradient
   inkscape:collect="always"
   xlink:href="#linearGradient3142"
   id="linearGradient3140"
   x1="132.76085"
   y1="71.050522"
   x2="132.61351"
   y2="168.59512"
   gradientUnits="userSpaceOnUse" /><radialGradient
   inkscape:collect="always"
   xlink:href="#linearGradient3164"
   id="radialGradient3170"
   cx="86.5715"
   cy="168.9264"
   fx="86.5715"
   fy="168.9264"
   r="12.6507"
   gradientTransform="matrix(1,0,0,1.0054154,0,-0.91480121)"
   gradientUnits="userSpaceOnUse" /><radialGradient
   inkscape:collect="always"
   xlink:href="#linearGradient3164"
   id="radialGradient3172"
   cx="201.4164"
   cy="169.0264"
   fx="201.4164"
   fy="169.0264"
   r="12.6507"
   gradientTransform="matrix(1,0,0,1.0054154,0,-0.91534275)"
   gradientUnits="userSpaceOnUse" /><radialGradient
   inkscape:collect="always"
   xlink:href="#linearGradient3174"
   id="radialGradient3180"
   cx="86.571503"
   cy="168.92599"
   fx="86.571503"
   fy="168.92599"
   r="21.564001"
   gradientUnits="userSpaceOnUse" /><radialGradient
   inkscape:collect="always"
   xlink:href="#linearGradient3174"
   id="radialGradient3186"
   cx="201.416"
   cy="169.026"
   fx="201.416"
   fy="169.026"
   r="21.564001"
   gradientUnits="userSpaceOnUse" /><linearGradient
   inkscape:collect="always"
   xlink:href="#linearGradient3956"
   id="linearGradient3962"
   x1="46.511604"
   y1="140.325"
   x2="46.281265"
   y2="147.83977"
   gradientUnits="userSpaceOnUse" /><linearGradient
   inkscape:collect="always"
   xlink:href="#linearGradient3164"
   id="linearGradient3964"
   x1="84.580093"
   y1="107.84624"
   x2="84.649529"
   y2="79.408012"
   gradientUnits="userSpaceOnUse" /><radialGradient
   inkscape:collect="always"
   xlink:href="#linearGradient3966"
   id="radialGradient3974"
   cx="63.677586"
   cy="88.122932"
   fx="63.677586"
   fy="88.122932"
   r="16.4806"
   gradientTransform="matrix(1,0,0,0.97799534,0,2.0650962)"
   gradientUnits="userSpaceOnUse" /><radialGradient
   inkscape:collect="always"
   xlink:href="#linearGradient3966"
   id="radialGradient3976"
   cx="100.30038"
   cy="87.972267"
   fx="100.30038"
   fy="87.972267"
   r="16.4806"
   gradientTransform="matrix(1,0,0,0.97799534,0,2.0650962)"
   gradientUnits="userSpaceOnUse" /><radialGradient
   inkscape:collect="always"
   xlink:href="#linearGradient3966"
   id="radialGradient3978"
   cx="136.03949"
   cy="87.670944"
   fx="136.03949"
   fy="87.670944"
   r="16.4806"
   gradientTransform="matrix(1,0,0,0.97799534,0,2.0650962)"
   gradientUnits="userSpaceOnUse" /><radialGradient
   inkscape:collect="always"
   xlink:href="#linearGradient3966"
   id="radialGradient3980"
   cx="171.77809"
   cy="88.122932"
   fx="171.77809"
   fy="88.122932"
   r="16.4806"
   gradientTransform="matrix(1,0,0,0.97799534,0,2.0650962)"
   gradientUnits="userSpaceOnUse" /><radialGradient
   inkscape:collect="always"
   xlink:href="#linearGradient3966"
   id="radialGradient3982"
   cx="208.84283"
   cy="88.122932"
   fx="208.84283"
   fy="88.122932"
   r="16.4806"
   gradientTransform="matrix(1,0,0,0.97799534,0,2.0650962)"
   gradientUnits="userSpaceOnUse" /><radialGradient
   inkscape:collect="always"
   xlink:href="#linearGradient3966"
   id="radialGradient3984"
   cx="239.03587"
   cy="87.949951"
   fx="239.03587"
   fy="87.949951"
   r="4.4218002"
   gradientTransform="matrix(1.7982606,0.01354961,-0.01517564,2.0140601,-188.62406,-93.599906)"
   gradientUnits="userSpaceOnUse" /><radialGradient
   inkscape:collect="always"
   xlink:href="#linearGradient3966"
   id="radialGradient3986"
   cx="46.06044"
   cy="90.881378"
   fx="46.06044"
   fy="90.881378"
   r="4.4218002"
   gradientTransform="matrix(1.7997558,0.03332276,-0.03663434,1.978614,-33.97115,-93.399809)"
   gradientUnits="userSpaceOnUse" /><linearGradient
   inkscape:collect="always"
   xlink:href="#linearGradient3988"
   id="linearGradient3994"
   x1="70.897667"
   y1="77.050438"
   x2="71.192329"
   y2="110.35117"
   gradientUnits="userSpaceOnUse" /><linearGradient
   inkscape:collect="always"
   xlink:href="#linearGradient3988"
   id="linearGradient4004"
   x1="107.07841"
   y1="77.050438"
   x2="107.07838"
   y2="109.90912"
   gradientUnits="userSpaceOnUse" /><linearGradient
   inkscape:collect="always"
   xlink:href="#linearGradient3988"
   id="linearGradient4012"
   x1="142.81752"
   y1="77.197792"
   x2="142.96484"
   y2="109.46708"
   gradientUnits="userSpaceOnUse" /><linearGradient
   inkscape:collect="always"
   xlink:href="#linearGradient3988"
   id="linearGradient4020"
   x1="178.26144"
   y1="77.050438"
   x2="177.81937"
   y2="110.49851"
   gradientUnits="userSpaceOnUse" /><linearGradient
   inkscape:collect="always"
   xlink:href="#linearGradient3988"
   id="linearGradient4028"
   x1="215.32619"
   y1="77.050438"
   x2="215.4735"
   y2="110.05647"
   gradientUnits="userSpaceOnUse" /><linearGradient
   inkscape:collect="always"
   xlink:href="#linearGradient3164"
   id="linearGradient4032"
   x1="48.179535"
   y1="168.80719"
   x2="48.272442"
   y2="156.60982"
   gradientUnits="userSpaceOnUse" /><linearGradient
   inkscape:collect="always"
   xlink:href="#linearGradient3164"
   id="linearGradient4040"
   x1="240.67442"
   y1="168.80719"
   x2="240.76733"
   y2="156.30103"
   gradientUnits="userSpaceOnUse" /><linearGradient
   inkscape:collect="always"
   xlink:href="#linearGradient3174"
   id="linearGradient4042"
   x1="53.475109"
   y1="168.55809"
   x2="53.551304"
   y2="173.0356"
   gradientUnits="userSpaceOnUse" /><linearGradient
   inkscape:collect="always"
   xlink:href="#linearGradient3988"
   id="linearGradient4063"
   x1="33.500744"
   y1="74.820869"
   x2="33.538937"
   y2="108.41629"
   gradientUnits="userSpaceOnUse"
   gradientTransform="translate(14.204919,1.899757)" /><radialGradient
   inkscape:collect="always"
   xlink:href="#linearGradient3966"
   id="radialGradient4065"
   gradientUnits="userSpaceOnUse"
   gradientTransform="matrix(1.8001203,0.0321679,-0.03664176,1.9100423,-33.987501,-86.784884)"
   cx="46.06044"
   cy="90.881378"
   fx="46.06044"
   fy="90.881378"
   r="4.4218002" /><radialGradient
   inkscape:collect="always"
   xlink:href="#linearGradient3966"
   id="radialGradient4071"
   gradientUnits="userSpaceOnUse"
   gradientTransform="matrix(1.8001203,0.0321679,-0.03664176,1.9100423,-189.24059,-57.376881)"
   cx="46.06044"
   cy="90.881378"
   fx="46.06044"
   fy="90.881378"
   r="4.4218002" /><linearGradient
   inkscape:collect="always"
   xlink:href="#linearGradient3988"
   id="linearGradient4073"
   gradientUnits="userSpaceOnUse"
   gradientTransform="matrix(-1,0,0,1,141.04817,31.30776)"
   x1="33.500744"
   y1="74.820869"
   x2="33.538937"
   y2="108.41629" /><radialGradient
   inkscape:collect="always"
   xlink:href="#linearGradient3966"
   id="radialGradient4079"
   gradientUnits="userSpaceOnUse"
   gradientTransform="matrix(1.8001203,0.0321679,-0.03664176,1.9100423,-189.24059,-57.376881)"
   cx="46.06044"
   cy="90.881378"
   fx="46.06044"
   fy="90.881378"
   r="4.4218002" /><linearGradient
   inkscape:collect="always"
   xlink:href="#linearGradient3988"
   id="linearGradient4081"
   gradientUnits="userSpaceOnUse"
   gradientTransform="matrix(-1,0,0,1,141.04817,31.30776)"
   x1="33.500744"
   y1="74.820869"
   x2="33.538937"
   y2="108.41629" /><radialGradient
   inkscape:collect="always"
   xlink:href="#linearGradient3164"
   id="radialGradient4103"
   gradientUnits="userSpaceOnUse"
   gradientTransform="matrix(1,0,0,1.0054154,29.887481,-24.249412)"
   cx="86.5715"
   cy="168.9264"
   fx="86.5715"
   fy="168.9264"
   r="12.6507" /><radialGradient
   inkscape:collect="always"
   xlink:href="#linearGradient3078"
   id="radialGradient3084"
   cx="242.62935"
   cy="145.10666"
   fx="242.62935"
   fy="145.10666"
   r="2.3462001"
   gradientTransform="matrix(1,0,0,2.683616,0,-245.80793)"
   gradientUnits="userSpaceOnUse" /><linearGradient
   inkscape:collect="always"
   xlink:href="#linearGradient3094"
   id="linearGradient3100"
   x1="228.32588"
   y1="134.0629"
   x2="228.41331"
   y2="137.57907"
   gradientUnits="userSpaceOnUse" /></defs>
 
<g
   id="g3104"><path
     class="fil1 str0"
     d="m 21.789423,169.8946 c -4.829264,-0.81485 -1.207316,-2.17292 2.414772,-1.90131 0,-0.81484 6.036861,-1.08646 8.451633,-0.27161 0,-1.08646 7.244456,-1.08646 7.244456,0 3.622088,-0.81485 9.658948,0.27161 7.244316,1.08646 3.621949,0.27161 2.414632,1.62983 0,1.62983 3.621949,0.27161 2.414632,1.62969 0,1.62969 2.414632,0.81484 -3.622228,1.9013 -7.244316,0.81484 -1.207316,1.08646 -8.451772,1.08646 -8.451772,0 -2.414773,0.81484 -7.244317,0.54323 -6.036861,-0.27162 -3.622228,0.27162 -6.03686,-0.81484 -3.622228,-1.35807 -2.414632,0 -3.621948,-1.35821 0,-1.35821 z"
     id="path3101"
     inkscape:connector-curvature="0"
     style="fill:#4d4d4d;fill-rule:nonzero;stroke:none" /><path
     class="fil1 str0"
     d="m 25.467489,170.254 c -3.213895,-0.7795 -0.803439,-2.0786 1.607017,-1.8188 0,-0.7795 4.017473,-1.0393 5.624491,-0.2598 0,-1.0393 4.821051,-1.0393 4.821051,0 2.410596,-0.7795 6.428069,0.2598 4.821052,1.0392 2.410456,0.2599 1.607017,1.5591 0,1.5591 2.410456,0.2598 1.607017,1.5589 0,1.5589 1.607017,0.7795 -2.410456,1.8188 -4.821052,0.7795 -0.803438,1.0393 -5.62449,1.0393 -5.62449,0 -1.607017,0.7795 -4.821052,0.5197 -4.017473,-0.2598 -2.410596,0.2598 -4.017613,-0.7794 -2.410596,-1.2991 -1.607017,0 -2.410456,-1.2992 0,-1.2992 z"
     id="path3103"
     inkscape:connector-curvature="0"
     style="fill:#999999;fill-rule:nonzero;stroke:none" /><rect
     class="fil0 str0"
     x="44.453999"
     y="71.190498"
     width="198.495"
     height="97.720299"
     rx="3"
     ry="3"
     id="rect3055"
     style="fill:url(#linearGradient3140);stroke:#000000;stroke-width:0.20000000000000001;fill-opacity:1" /><rect
     class="fil0 str0"
     x="44.453999"
     y="79.8302"
     width="198.495"
     height="28.0359"
     id="rect3057"
     style="fill:url(#linearGradient3964);stroke:none;stroke-width:0.20000000000000001" /><rect
     class="fil0 str0"
     x="39.170101"
     y="156.661"
     width="16.567801"
     height="12.2494"
     rx="2"
     ry="2"
     id="rect3059"
     style="fill:url(#linearGradient4032);stroke:#000000;stroke-width:0.20000000000000001" /><rect
     class="fil0 str0"
     x="231.66499"
     y="156.661"
     width="16.567801"
     height="12.2494"
     rx="2"
     ry="2"
     id="rect3061"
     style="fill:url(#linearGradient4040);stroke:#000000;stroke-width:0.20000000000000001;fill-opacity:1" /><rect
     class="fil0 str0"
     x="54.664398"
     y="77.8302"
     width="32.7612"
     height="32.0359"
     rx="2"
     ry="2"
     id="rect3063"
     style="fill:url(#radialGradient3974);stroke:url(#linearGradient3994);stroke-width:1.12888890999999990;stroke-miterlimit:4;stroke-dasharray:none" /><rect
     class="fil0 str0"
     x="90.9925"
     y="77.8302"
     width="32.7612"
     height="32.0359"
     rx="2"
     ry="2"
     id="rect3065"
     style="fill:url(#radialGradient3976);stroke:url(#linearGradient4004);stroke-width:1.12888890999999990;stroke-miterlimit:4;stroke-dasharray:none" /><rect
     class="fil0 str0"
     x="127.321"
     y="77.8302"
     width="32.7612"
     height="32.0359"
     rx="2"
     ry="2"
     id="rect3067"
     style="fill:url(#radialGradient3978);stroke:url(#linearGradient4012);stroke-width:1.12888890999999990;stroke-miterlimit:4;stroke-dasharray:none" /><rect
     class="fil0 str0"
     x="163.649"
     y="77.8302"
     width="32.7612"
     height="32.0359"
     rx="2"
     ry="2"
     id="rect3069"
     style="fill:url(#radialGradient3980);stroke:url(#linearGradient4020);stroke-width:1.12888890999999990;stroke-miterlimit:4;stroke-dasharray:none" /><rect
     class="fil0 str0"
     x="199.97701"
     y="77.8302"
     width="32.7612"
     height="32.0359"
     rx="2"
     ry="2"
     id="rect3071"
     style="fill:url(#radialGradient3982);stroke:url(#linearGradient4028);stroke-width:1.12888890999999990;stroke-miterlimit:4;stroke-dasharray:none" /><rect
     id="rect3073"
     class="fil0 str0"
     x="42.453125"
     y="78.510902"
     width="8.6453514"
     height="30.925652"
     rx="2.0004051"
     ry="1.9306872"
     style="fill:url(#radialGradient4065);stroke:#000000;stroke-width:0.1965237" /><path
     class="fil0 str0"
     d="m 226.668,169.026 -50.5034,0 c 0,-13.9461 11.3056,-25.2517 25.2517,-25.2517 13.9461,0 25.2517,11.3056 25.2517,25.2517 z"
     id="path3081"
     inkscape:connector-curvature="0"
     style="fill:#574600;stroke:#000000;stroke-width:0.20000000000000001;fill-opacity:1" /><ellipse
     class="fil0 str0"
     cx="201.416"
     cy="169.026"
     rx="21.464001"
     ry="21.464001"
     id="ellipse3077"
     sodipodi:cx="201.416"
     sodipodi:cy="169.026"
     sodipodi:rx="21.464001"
     sodipodi:ry="21.464001"
     style="fill:url(#radialGradient3186);stroke:#000000;stroke-width:0.20000000000000001" /><path
     class="fil0 str0"
     d="m 111.823,168.927 -50.5034,0 c 0,-13.9462 11.3056,-25.2517 25.2517,-25.2517 13.9461,0 25.2517,11.3055 25.2517,25.2517 z"
     id="path3079"
     inkscape:connector-curvature="0"
     style="fill:#574600;stroke:#000000;stroke-width:0.20000000000000001;fill-opacity:1" /><circle
     class="fil0 str0"
     cx="86.571503"
     cy="168.92599"
     r="21.464001"
     id="circle3083"
     sodipodi:cx="86.571503"
     sodipodi:cy="168.92599"
     sodipodi:rx="21.464001"
     sodipodi:ry="21.464001"
     style="fill:url(#radialGradient3180);stroke:#000000;stroke-width:0.20000000000000001" /><circle
     class="fil0 str0"
     cx="86.571503"
     cy="168.92599"
     r="12.6258"
     id="circle3085"
     sodipodi:cx="86.571503"
     sodipodi:cy="168.92599"
     sodipodi:rx="12.6258"
     sodipodi:ry="12.6258"
     style="fill:#4d4d4d;stroke:#000000;stroke-width:0.20000000000000001" /><ellipse
     class="fil0 str0"
     cx="201.416"
     cy="169.026"
     rx="12.6259"
     ry="12.6259"
     id="ellipse3087"
     sodipodi:cx="201.416"
     sodipodi:cy="169.026"
     sodipodi:rx="12.6259"
     sodipodi:ry="12.6259"
     style="fill:#4d4d4d;stroke:#000000;stroke-width:0.20000000000000001;fill-opacity:1" /><rect
     class="fil0 str0"
     x="224.11057"
     y="134.30553"
     width="9.3171997"
     height="3.0309"
     id="rect3089"
     style="fill:url(#linearGradient3100);stroke:#000000;stroke-width:0.20000000000000001" /><rect
     class="fil0 str0"
     x="42.338501"
     y="140.394"
     width="9.4420004"
     height="7.5240998"
     id="rect3091"
     style="fill:url(#linearGradient3962);stroke:#000000;stroke-width:0.20000000000000001" /><path
     class="fil0 str0"
     d="m 85.6871,156.331 c 2.3079,-0.095 4.0528,0.0647 5.9432,1.0238 l -3.9205,7.6544 1.7048,1.0637 7.6226,-4.2101 c 1.2363,1.9512 1.9705,3.5422 2.085,5.6588 l -8.5891,0.432 -0.0689,2.0083 7.4574,4.4963 c -1.0717,2.0462 -2.0824,3.4775 -3.8582,4.635 l -4.6686,-7.2223 -1.7737,0.9444 -0.1652,8.7065 c -2.3079,0.095 -4.0528,-0.0647 -5.9432,-1.0238 l 3.9205,-7.6544 -1.7048,-1.0637 -7.6226,4.2101 c -1.2363,-1.9512 -1.9705,-3.5422 -2.085,-5.6588 l 8.5891,-0.432 0.0689,-2.0083 -7.4574,-4.4963 c 1.0717,-2.0462 2.0824,-3.4775 3.8582,-4.635 l 4.6686,7.2223 1.7737,-0.9444 0.1652,-8.7065 z"
     id="path3093"
     inkscape:connector-curvature="0"
     style="fill:url(#radialGradient3170);stroke:#000000;stroke-width:0.20000000000000001" /><path
     class="fil0 str0"
     d="m 200.532,156.431 c 2.3079,-0.095 4.0528,0.0647 5.9432,1.0238 l -3.9205,7.6544 1.7048,1.0637 7.6226,-4.2101 c 1.2363,1.9512 1.9705,3.5422 2.085,5.6588 l -8.5891,0.432 -0.0689,2.0083 7.4574,4.4963 c -1.0717,2.0462 -2.0824,3.4775 -3.8582,4.635 l -4.6686,-7.2223 -1.7737,0.9444 -0.1652,8.7065 c -2.3079,0.095 -4.0528,-0.0647 -5.9432,-1.0238 l 3.9205,-7.6544 -1.7048,-1.0637 -7.6226,4.2101 c -1.2363,-1.9512 -1.9705,-3.5422 -2.085,-5.6588 l 8.5891,-0.432 0.0689,-2.0083 -7.4574,-4.4963 c 1.0717,-2.0462 2.0824,-3.4775 3.8582,-4.635 l 4.6686,7.2223 1.7737,-0.9444 0.1652,-8.7065 z"
     id="path3095"
     inkscape:connector-curvature="0"
     style="fill:url(#radialGradient3172);stroke:#000000;stroke-width:0.20000000000000001" /><ellipse
     class="fil0 str0"
     cx="242.94901"
     cy="146"
     rx="2.2462001"
     ry="6.1963"
     id="ellipse3097"
     sodipodi:cx="242.94901"
     sodipodi:cy="146"
     sodipodi:rx="2.2462001"
     sodipodi:ry="6.1963"
     style="fill:url(#radialGradient3084);stroke:#000000;stroke-width:0.20000000000000001" /><path
     class="fil0 str0"
     d="m 59.0096,168.911 -15.9335,0 0,4.2349 12.9335,0 c 1.65,0 3,-1.35 3,-3 l 0,-1.2349 z"
     id="path3099"
     inkscape:connector-curvature="0"
     style="fill:url(#linearGradient4042);stroke:#000000;stroke-width:0.20000000000000001" /><path
     sodipodi:nodetypes="cssssccsssscc"
     inkscape:connector-curvature="0"
     id="rect4044"
     d="m 44.881093,78.059314 4.625,0 c 1.05433,0 1.90625,0.85192 1.90625,1.90625 l 0,28.031246 c 0,1.05433 -0.85192,1.90625 -1.90625,1.90625 l -4.625,0 1.8e-5,0.1875 4.625,0 c 1.16167,0 2.09375,-0.93208 2.09375,-2.09375 l 0,-28.03125 c 0,-1.16167 -0.932083,-2.122394 -2.09375,-2.125 L 44.886293,77.8302 z"
     style="font-size:medium;font-style:normal;font-variant:normal;font-weight:normal;font-stretch:normal;text-indent:0;text-align:start;text-decoration:none;line-height:normal;letter-spacing:normal;word-spacing:normal;text-transform:none;direction:ltr;block-progression:tb;writing-mode:lr-tb;text-anchor:start;baseline-shift:baseline;color:#000000;fill:#000000;stroke:url(#linearGradient4063);stroke-width:1.12888896;stroke-miterlimit:4;stroke-opacity:1;stroke-dasharray:none;marker:none;visibility:visible;display:inline;overflow:visible;enable-background:accumulate;font-family:Sans;-inkscape-font-specification:Sans" /><g
     transform="translate(131.96098,-29.475992)"
     id="g4075"><rect
       id="rect4067"
       class="fil0 str0"
       x="-112.79996"
       y="107.91891"
       width="8.6453514"
       height="30.925652"
       rx="2.0004051"
       ry="1.9306872"
       style="fill:url(#radialGradient4079);stroke:#000000;stroke-width:0.1965237"
       transform="scale(-1,1)" /><path
       sodipodi:nodetypes="cssssccsssscc"
       inkscape:connector-curvature="0"
       id="path4069"
       d="m 110.37199,107.46732 -4.625,0 c -1.05433,0 -1.90625,0.85192 -1.90625,1.90625 l 0,28.03124 c 0,1.05433 0.85192,1.90625 1.90625,1.90625 l 4.625,0 -1e-5,0.1875 -4.625,0 c -1.16167,0 -2.09375,-0.93208 -2.09375,-2.09375 l 0,-28.03125 c 0,-1.16167 0.93208,-2.12239 2.09375,-2.125 l 4.61981,-0.0104 z"
       style="font-size:medium;font-style:normal;font-variant:normal;font-weight:normal;font-stretch:normal;text-indent:0;text-align:start;text-decoration:none;line-height:normal;letter-spacing:normal;word-spacing:normal;text-transform:none;direction:ltr;block-progression:tb;writing-mode:lr-tb;text-anchor:start;baseline-shift:baseline;color:#000000;fill:#000000;stroke:url(#linearGradient4081);stroke-width:1.12888896;stroke-miterlimit:4;stroke-opacity:1;stroke-dasharray:none;marker:none;visibility:visible;display:inline;overflow:visible;enable-background:accumulate;font-family:Sans;-inkscape-font-specification:Sans" /></g></g></svg>